<?xml version="1.0" encoding="utf-8"?>
<!-- Generator: Adobe Illustrator 19.0.0, SVG Export Plug-In . SVG Version: 6.00 Build 0)  -->
<svg version="1.1" id="Layer_1" xmlns="http://www.w3.org/2000/svg" xmlns:xlink="http://www.w3.org/1999/xlink" x="0px" y="0px"
	 viewBox="-158.9 593 110 90" style="enable-background:new -158.9 593 110 90;" xml:space="preserve">
<style type="text/css">
	.st0{fill:#FBFBFB;}
</style>
<g id="Home">
</g>
<g id="Quote">
</g>
<g id="question">
</g>
<g id="dish">
	<g>
		<path class="st0" d="M-135.5,655.1c22.2-0.1,44.4-0.2,66.5-0.3c0.2,0,0.4-0.3,0.6-0.4c0.2-0.2,0.3-0.4,0.5-0.5
			c0.6-16.9-10.5-31.7-26.9-35.8c-2.3-0.6-4.7-1.2-8-2.1c1.4-2.4,2.3-4,3.2-5.6c1.3-2.5,1.2-4.8-1-6.8c-2-1.8-4.8-1.8-6.8,0
			c-2.1,1.9-2.5,4.2-1,6.7c1,1.6,1.8,3.3,3.2,6c-10.8,2-19.3,5.2-25.7,12.5c-6.4,7.4-9.9,15.8-9,25.9
			C-137.9,654.8-136.7,655.1-135.5,655.1z M-77.6,646.2c-1.5-5-3.1-10-7.3-13.3c-3.8-3-7.9-5.6-12.2-8.6
			C-86.9,623.5-76.6,634.8-77.6,646.2z"/>
		<path class="st0" d="M-65.9,661.1c-0.8-0.3-1.8-0.3-2.7-0.3c-23.1,0-46.2,0-69.3,0c-2,0-4.2-0.2-5.7,2.3c1.2,3,3.5,2.4,5.5,2.4
			c22.9,0,45.8,0,68.6,0c1.2,0,2.4,0.2,3.4-0.3c0.8-0.4,1.6-1.5,1.8-2.5C-64.1,662.4-65.2,661.4-65.9,661.1z"/>
	</g>
</g>
<g id="mail">
</g>
</svg>
