<?xml version="1.0" encoding="utf-8"?>
<!-- Generator: Adobe Illustrator 19.0.0, SVG Export Plug-In . SVG Version: 6.00 Build 0)  -->
<svg version="1.1" id="Layer_1" xmlns="http://www.w3.org/2000/svg" xmlns:xlink="http://www.w3.org/1999/xlink" x="0px" y="0px"
	 viewBox="-160 348.3 110 90" style="enable-background:new -160 348.3 110 90;" xml:space="preserve">
<style type="text/css">
	.st0{fill:#FFFFFF;}
</style>
<g>
	<path class="st0" d="M-66.1,391.6c-12.1-12.1-24.2-24.2-36.3-36.3c-2.5-2.5-2.3-3-5.4,0.1c-11.8,11.8-23.7,23.7-35.5,35.5
		c-0.5,0.5-1,1-1.5,1.6c-0.6,0.8-0.2,1.3,0.6,1.5c0.7,0.1,1.4,0.1,2.2,0.1c4.8-0.2,4.3,0.5,4.3,4.6c0,8.1,0,16.3,0,24.4
		c0,4,0.1,4.2,4.2,4.2c9.4,0,18.7,0.3,28.1,0.3c3.1,0,6.1,0,9.2,0c6.5,0,13-0.3,19.4-0.3c4.6,0,4.6-0.3,4.6-5.1c0-1.3,0-2.5,0-3.8
		c0-6.7,0-13.3,0-20c0-4.2,0.1-4.2,4-4.3c0.4,0,0.7,0.1,1.1,0c0.8-0.2,2,0.5,2.2-0.7C-64.8,392.8-65.6,392-66.1,391.6z M-81.5,414.7
		c0,3.2-0.1,3.2-3.4,3.3c-2.7,0.1-5.4-0.1-8.1,0c-1.5,0.1-2.3-0.3-2.7-1.2c-0.2-0.5-0.3-1.2-0.3-2c0.1-3.8,0-7.6,0.1-11.3
		c0-0.5,0-1-0.1-1.3c-0.3-1.1-1.2-1.5-2.7-1.5c-4,0.1-7.9,0-11.9,0c-3.3,0-3.3,0.1-3.4,3.2c-0.1,3.7-0.1,7.4,0,11.1
		c0,0.1,0,0.1,0,0.2c0,0,0,0,0,0c0,0,0,0,0,0c0.1,2.2-0.9,2.8-2.9,2.7c-3.1-0.1-6.1-0.1-9.2,0c-1.9,0-2.5-0.8-2.5-2.6
		c0-0.1,0-0.1,0-0.2c0,0,0,0,0,0c0-0.1,0-0.2,0-0.3c0-1.9,0-3.7,0-5.6c0-2,0-4.1,0-6.4c0,0,0,0,0,0c0-0.1,0-0.3,0-0.4c0,0,0,0,0,0
		c0-1,0-2.2,0-3.4c0-0.3,0-0.5,0-0.8c0-0.3,0-0.6,0-0.9c0-1.8,0-3.5-0.1-5.3c0-0.1,0-0.1,0-0.2c0,0,0,0,0,0
		c-0.1-2.4,0.7-3.8,2.4-5.5c1.6-1.5,3.1-3.1,4.7-4.6c1.6-1.6,3.1-3.1,4.7-4.7c0,0,0,0,0,0c3.1-3.1,6.2-6.2,9.3-9.3
		c2.3-2.3,2.4-2.3,4.7,0c6.4,6.3,12.7,12.7,19.1,19c1.5,1.5,2.2,3,2.2,5.2C-81.5,399.6-81.4,407.1-81.5,414.7z"/>
</g>
<g id="Quote">
</g>
<g id="question">
</g>
<g id="dish">
</g>
<g id="mail">
</g>
</svg>
