<?xml version="1.0" encoding="utf-8"?>
<!-- Generator: Adobe Illustrator 19.0.0, SVG Export Plug-In . SVG Version: 6.00 Build 0)  -->
<svg version="1.1" id="Layer_1" xmlns="http://www.w3.org/2000/svg" xmlns:xlink="http://www.w3.org/1999/xlink" x="0px" y="0px"
	 viewBox="-160 342 110 110" style="enable-background:new -160 342 110 110;" xml:space="preserve">
<style type="text/css">
	.st0{fill:#FBFBFB;}
</style>
<g>
	<path class="st0" d="M-126.3,407.9c15.8-0.1,31.6-0.1,47.3-0.2c0.1,0,0.3-0.2,0.4-0.3c0.1-0.1,0.2-0.3,0.4-0.4
		c0.4-12-7.5-22.5-19.1-25.5c-1.7-0.4-3.3-0.9-5.7-1.5c1-1.7,1.7-2.8,2.3-4c0.9-1.8,0.9-3.4-0.7-4.8c-1.4-1.3-3.4-1.3-4.8,0
		c-1.5,1.4-1.8,3-0.7,4.8c0.7,1.1,1.3,2.4,2.3,4.2c-7.7,1.4-13.8,3.7-18.3,8.9c-4.5,5.3-7,11.2-6.4,18.4
		C-128,407.7-127.2,407.9-126.3,407.9z M-85.1,401.6c-1.1-3.6-2.2-7.1-5.2-9.5c-2.7-2.1-5.7-4-8.7-6.1
		C-91.7,385.4-84.4,393.4-85.1,401.6z"/>
	<path class="st0" d="M-74.6,412.1c-0.6-0.3-1.4-0.2-2.1-0.2c-17.8,0-35.6,0-53.4,0c-1.5,0-3.2-0.1-4.4,1.8c0.9,2.3,2.7,1.9,4.2,1.9
		c17.6,0,35.2,0,52.8,0c0.9,0,1.9,0.1,2.6-0.2c0.7-0.3,1.2-1.2,1.4-1.9C-73.2,413.1-74.1,412.3-74.6,412.1z"/>
</g>
</svg>
