<?xml version="1.0" encoding="utf-8"?>
<!-- Generator: Adobe Illustrator 19.0.0, SVG Export Plug-In . SVG Version: 6.00 Build 0)  -->
<svg version="1.1" id="Layer_1" xmlns="http://www.w3.org/2000/svg" xmlns:xlink="http://www.w3.org/1999/xlink" x="0px" y="0px"
	 viewBox="-160 351.6 110 90" style="enable-background:new -160 351.6 110 90;" xml:space="preserve">
<style type="text/css">
	.st0{fill:#FBFBFB;}
</style>
<g id="Home">
</g>
<g id="Quote">
</g>
<g id="question">
</g>
<g id="dish">
</g>
<g id="mail">
	<g>
		<path class="st0" d="M-139.6,369c1.8-0.4,4-0.3,5.8-0.3c1.9,0,3.8,0.1,5.7,0.1c0.6,0,1.2,0,1.7,0c0.8,0,1.7,0,2.5,0
			c6.5,0,13,0,18.9,0l0,0c1.2,0,2.1,0,2.6,0c5.2,0,10.5,0.1,15.7,0.1c3,0,5.9,0,8.9,0c2.9,0,7.1-0.3,8.7,0.4c0.6,0.3-0.5,1.4-1,1.8
			c-0.6,0.5-1.2,1-1.9,1.4c0,0-0.1,0.1-0.1,0.1c-0.1,0.1-0.2,0.1-0.2,0.2c-0.3,0.2-0.5,0.4-0.8,0.6c-0.9,0.7-1.7,1.3-2.6,2
			c-0.2,0.2-0.5,0.4-0.7,0.6c-0.2,0.2-0.5,0.4-0.7,0.6c-1.2,0.9-2.3,1.8-3.5,2.7c-0.8,0.6-1.6,1.3-2.5,1.9
			c-4.9,3.8-9.8,7.5-14.7,11.3c-0.2,0.2-0.4,0.3-0.6,0.5c-1.1,0.8-2.1,1.7-3.2,2.5c-0.9,0.7-1.8,1.4-2.9,1.6c-0.5,0.1-1,0-1.5-0.1
			c-0.2-0.1-0.5-0.2-0.7-0.3c-1.7-0.9-3.2-2.3-4.6-3.5c-0.4-0.3-0.8-0.6-1.1-0.9c-0.5-0.4-1-0.8-1.5-1.1c-1.3-1-2.6-2-4-3.1
			c-5.5-4.2-10.9-8.4-16.4-12.6c-0.2-0.2-0.4-0.3-0.6-0.5c-0.4-0.3-0.8-0.6-1.3-1c-0.7-0.6-1.5-1.1-2.2-1.7
			c-0.6-0.5-1.5-0.9-1.8-1.7c0-0.1,0-0.1-0.1-0.2C-140.5,369.8-140.5,369.2-139.6,369z M-141.9,414.5c-0.6-0.2-0.6-1.1-0.7-1.7
			c-0.2-0.7-0.1-1.5-0.1-2.2c0-1.6,0-2.9,0-4.5c0-3.1,0-6.8,0-9.2c0,0,0,0,0,0c0,0-0.1-0.7-0.1-1.3c0-2.9-0.1-6.1-0.1-9
			c0-0.1,0-0.1,0-0.2c0-0.1,0-0.2,0-0.3c0-0.7,0.1-1.4,0.1-2.1c0-0.9,0-1.7,0-2.6c0-0.7-0.1-1.9,0.2-2.7c0,0,0.1-0.1,0.1-0.1
			c0-0.1,0.1-0.1,0.1-0.2c0.1-0.1,0.2-0.2,0.3-0.3c0.1-0.1,0.2-0.1,0.3-0.1c0,0,0.1,0,0.1,0c0.1,0,0.1,0,0.2,0c0.1,0,0.2,0,0.2,0.1
			c0,0,0,0,0.1,0c0.7,0.2,1.3,0.9,1.7,1.2c0.7,0.5,1.3,1,2,1.5c0.6,0.4,1.1,0.9,1.7,1.3c0.1,0,0.1,0.1,0.2,0.1
			c0.1,0,0.1,0.1,0.2,0.1c2.6,2,5.1,4,7.7,6c1.2,1,2.5,1.9,3.7,2.9c0.7,0.5,1.8,1.2,2.3,2.1c0,0.1,0,0.1,0.1,0.2
			c0,0.1,0,0.1,0.1,0.2c0,0.1,0,0.2,0,0.2c0,0,0,0.1,0,0.1c0,0,0,0.1,0,0.1c0,0,0,0.1,0,0.1c0,0,0,0.1,0,0.1c0,0.1-0.1,0.2-0.1,0.3
			c0,0.1,0,0.1-0.1,0.1c-0.1,0.1-0.1,0.2-0.2,0.3c0,0.1-0.1,0.2-0.2,0.2c0,0-0.1,0.1-0.1,0.1c-0.7,0.8-1.6,1.6-2.3,2.2
			c-1.1,1.1-2.2,2.2-3.3,3.3c-2.4,2.4-4.9,4.9-7.3,7.3c-0.5,0.5-1,1-1.5,1.5c-0.6,0.6-1.2,1.2-1.9,1.9c-0.1,0.1-0.2,0.2-0.2,0.2
			c0,0-0.1,0.1-0.1,0.1c-0.2,0.2-0.4,0.4-0.6,0.6c-0.2,0.2-0.5,0.5-0.7,0.7C-140.7,414-141.2,414.8-141.9,414.5z M-68.8,424.4
			c-0.3,0.6-1.2,0.5-1.8,0.6c-0.7,0.1-1.6,0.1-2.3,0.1c-1.6,0-3.1,0-4.7,0c-3.1,0-6.4,0-9.5,0c-6.3,0-19.8,0.1-20.4,0.1
			c-5.6,0-11.2,0-16.7,0c-3,0-6,0-9,0c-0.2,0-0.3,0-0.5,0c-1.4,0-2.9,0-4.3,0c-1.4,0.1-3.3,0.3-3.4-1c-0.1-0.9,2.4-3.2,4.3-4.9
			c0.4-0.4,0.8-0.8,1.2-1.1c1.3-1.3,2.6-2.6,3.9-3.9c0.5-0.5,1.1-1.1,1.6-1.6c0,0,0,0,0,0c0.1-0.1,0.2-0.2,0.3-0.3
			c1.9-1.9,3.8-3.7,5.6-5.6c0.8-0.8,1.6-1.6,2.4-2.4c1.3-1.3,2.5-2.5,3.8-3.8c0.7-0.8,1.5-1.8,2.7-1.9c0.7-0.1,1.4,0.2,1.9,0.6
			c0.2,0.1,0.3,0.2,0.5,0.4c0.2,0.1,0.3,0.3,0.5,0.4c0.9,0.8,1.9,1.5,2.8,2.2c0.7,0.5,1.3,1.1,2,1.6c0.2,0.2,0.4,0.3,0.6,0.5
			c0,0,0.1,0.1,0.1,0.1c0.1,0.1,0.2,0.2,0.3,0.2c0,0,0.1,0,0.1,0.1c2,1.2,3.4-0.1,5.2-1.3c0.1-0.1,0.3-0.2,0.4-0.2c0,0,0,0,0,0
			c2.3-1.5,4.6-3.1,7-4.6c4.4,4.2,8.8,8.5,13.1,12.8c2.2,2.2,4.4,4.4,6.6,6.6c1.1,1.1,2.2,2.2,3.3,3.3c0.5,0.5,1.1,1,1.5,1.6
			C-69.2,423.3-68.6,423.9-68.8,424.4z M-67.3,397C-67.3,397-67.3,397-67.3,397c0,2.4,0,6,0,9.1c0,1.6,0,3,0,4.6
			c0,0.7,0.1,1.4-0.1,2.2c-0.1,0.6,0,1.5-0.6,1.7c-0.5,0.2-1.1-0.4-1.5-0.8c-0.1-0.1-0.2-0.2-0.3-0.3c0,0,0,0,0,0
			c-0.2-0.2-0.4-0.4-0.6-0.6c-0.3-0.3-0.5-0.5-0.8-0.8c0,0-0.1-0.1-0.1-0.1c-0.1-0.1-0.1-0.1-0.2-0.2c-0.6-0.6-1.2-1.2-1.8-1.8
			c-0.5-0.5-1-1-1.5-1.5c-0.1-0.1-0.2-0.2-0.3-0.3c0,0,0,0-0.1-0.1c-2.3-2.3-4.5-4.5-6.8-6.8c-0.4-0.4-0.8-0.8-1.1-1.2
			c-0.7-0.7-1.4-1.4-2.1-2.1c-0.8-0.8-1.9-1.6-2.6-2.5c-0.2-0.3-0.4-0.5-0.5-0.8c0,0,0,0,0,0c0,0,0-0.1,0-0.1c0-0.1,0-0.1-0.1-0.2
			c0,0,0-0.1,0-0.1c0-0.1,0-0.2,0-0.2c0-1.1,1.4-1.9,2.2-2.5c0.8-0.6,1.6-1.2,2.4-1.8c0.4-0.3,0.9-0.7,1.3-1c2.5-1.9,5-3.8,7.5-5.7
			c0.1,0,0.1-0.1,0.2-0.1c0.1,0,0.1-0.1,0.2-0.1c0.3-0.2,0.6-0.5,0.9-0.7c0.8-0.6,1.6-1.2,2.4-1.8c0.6-0.4,1.7-1.6,2.6-1.9
			c0.1,0,0.1,0,0.2,0c0,0,0.1,0,0.1,0c0.1,0,0.2,0,0.3,0c0,0,0,0,0.1,0c0,0,0.1,0,0.1,0.1c0,0,0.1,0,0.1,0c0,0,0,0,0,0
			c0.1,0.1,0.2,0.1,0.2,0.2c0,0,0,0,0.1,0.1c0,0.1,0.1,0.1,0.1,0.2c0.4,0.8,0.3,5,0.3,5.9C-67.2,385.2-67.3,393.4-67.3,397z"/>
		<path class="st0" d="M-142.7,395.4c0,0.4,0,0.8,0,1.2C-142.7,392.9-142.7,394.2-142.7,395.4z"/>
		<path class="st0" d="M-68.7,378.3c0.1,0,0.1,0,0.2,0C-68.6,378.2-68.6,378.2-68.7,378.3z"/>
		<path class="st0" d="M-122,395.3c-0.1,0.1-0.1,0.2-0.2,0.2C-122.1,395.4-122,395.3-122,395.3z"/>
		<path class="st0" d="M-74.7,382.7c-0.1,0-0.1,0.1-0.2,0.1c0.4-0.3,0.7-0.6,1.1-0.9C-74,382.2-74.4,382.5-74.7,382.7z"/>
		<path class="st0" d="M-142.9,386.2c0,0.1,0,0.2,0,0.3c0-0.8,0-1.6,0-2.4C-142.9,384.8-142.9,385.5-142.9,386.2z"/>
		<path class="st0" d="M-142.5,378.8c0,0,0-0.1,0.1-0.1C-142.5,378.7-142.5,378.7-142.5,378.8z"/>
		<path class="st0" d="M-138.8,412.1c0,0,0.1-0.1,0.1-0.1c-0.2,0.2-0.5,0.5-0.7,0.7C-139.2,412.5-139,412.3-138.8,412.1z"/>
		<path class="st0" d="M-136.6,409.9c0.5-0.5,1-1,1.5-1.5c2.4-2.4,4.9-4.9,7.3-7.3c-2.3,2.3-4.6,4.7-7,7
			C-135.4,408.7-136,409.3-136.6,409.9z"/>
		<path class="st0" d="M-67.6,378.6C-67.6,378.6-67.6,378.6-67.6,378.6C-67.6,378.6-67.6,378.6-67.6,378.6z"/>
		<path class="st0" d="M-124.2,397.5c-0.1,0.1-0.2,0.2-0.3,0.3c0.6-0.6,1.6-1.4,2.3-2.2C-122.8,396.3-123.7,397-124.2,397.5z"/>
		<path class="st0" d="M-67.9,378.3C-67.9,378.3-67.9,378.3-67.9,378.3C-67.9,378.3-67.9,378.3-67.9,378.3
			C-67.8,378.4-67.9,378.3-67.9,378.3z"/>
		<path class="st0" d="M-68.4,378.2c0.1,0,0.2,0,0.3,0C-68.2,378.2-68.3,378.2-68.4,378.2z"/>
		<path class="st0" d="M-67.1,386.5c0-0.1,0-0.1,0-0.2c0,3.4,0,6.7,0,10.1C-67.1,393.2-67.1,389.9-67.1,386.5z"/>
		<path class="st0" d="M-135.4,382.4c-0.1,0-0.1-0.1-0.2-0.1c2.6,2,5.3,4.1,7.9,6.1C-130.3,386.4-132.8,384.4-135.4,382.4z"/>
		<path class="st0" d="M-69.8,413.4C-69.8,413.4-69.8,413.4-69.8,413.4c-0.2-0.2-0.4-0.4-0.6-0.6C-70.2,413-70,413.2-69.8,413.4z"/>
		<path class="st0" d="M-141.5,378.1c0.1,0,0.2,0,0.2,0.1C-141.3,378.1-141.4,378.1-141.5,378.1z"/>
		<path class="st0" d="M-71.5,411.7c0.1,0.1,0.1,0.1,0.2,0.2c-0.7-0.7-1.3-1.3-2-2C-72.7,410.5-72.1,411.1-71.5,411.7z"/>
		<path class="st0" d="M-121.6,393.7c0,0.1,0,0.2,0,0.2C-121.6,393.9-121.6,393.8-121.6,393.7z"/>
		<path class="st0" d="M-124,391.2c-1.2-0.9-2.5-1.9-3.7-2.9C-126.5,389.3-125.2,390.3-124,391.2C-124,391.2-124,391.2-124,391.2z"
			/>
		<path class="st0" d="M-121.7,393.4c0,0.1,0,0.1,0.1,0.2C-121.7,393.5-121.7,393.4-121.7,393.4z"/>
		<path class="st0" d="M-121.7,394.8c0,0.1,0,0.1-0.1,0.1C-121.8,394.9-121.7,394.8-121.7,394.8z"/>
		<path class="st0" d="M-87.7,395.5c-0.2-0.3-0.4-0.5-0.5-0.8C-88.1,394.9-87.9,395.2-87.7,395.5z"/>
		<path class="st0" d="M-88.3,394.4c0,0.1,0,0.1,0.1,0.2C-88.3,394.4-88.3,394.4-88.3,394.4C-88.3,394.3-88.3,394.3-88.3,394.4z"/>
		<path class="st0" d="M-142.4,378.5c0.1-0.1,0.2-0.2,0.3-0.3C-142.2,378.3-142.3,378.4-142.4,378.5z"/>
		<path class="st0" d="M-141.8,378.1c0,0,0.1,0,0.1,0C-141.7,378.1-141.8,378.1-141.8,378.1z"/>
		<path class="st0" d="M-121.6,394.4c0,0,0-0.1,0-0.1C-121.6,394.3-121.6,394.4-121.6,394.4C-121.6,394.4-121.6,394.4-121.6,394.4z"
			/>
		<path class="st0" d="M-106.8,404.5C-106.7,404.5-106.7,404.6-106.8,404.5C-106.7,404.6-106.7,404.5-106.8,404.5z"/>
		<path class="st0" d="M-81.9,401.3c2.3,2.3,4.5,4.5,6.8,6.8c0,0,0,0,0.1,0.1c-2.2-2.2-4.5-4.5-6.7-6.7
			C-81.8,401.3-81.9,401.3-81.9,401.3z"/>
		<path class="st0" d="M-111.3,393c1.5,1.2,3,2.6,4.6,3.5c0.2,0.1,0.5,0.2,0.7,0.3c-0.9-0.3-1.7-0.9-2.5-1.5
			C-109.4,394.5-110.3,393.8-111.3,393z"/>
		<path class="st0" d="M-101.5,395.3c1.1-0.8,2.1-1.7,3.2-2.5c-0.6,0.5-1.2,0.9-1.8,1.4C-100.6,394.5-101.1,394.9-101.5,395.3z"/>
		<path class="st0" d="M-85.1,398c0.7,0.7,1.4,1.4,2.1,2.1C-83.7,399.4-84.4,398.7-85.1,398C-85.1,398-85.1,398-85.1,398z"/>
		<path class="st0" d="M-101.1,403C-101.1,403-101.1,403-101.1,403c2.3-1.5,4.6-3.1,7-4.6C-96.5,400-98.8,401.5-101.1,403z"/>
		<path class="st0" d="M-86.9,392.1c0.2-0.2,0.5-0.4,0.7-0.5c-0.8,0.6-2.2,1.4-2.2,2.5C-88.4,393.2-87.6,392.6-86.9,392.1z"/>
		<path class="st0" d="M-107.1,404.3c0,0-0.1-0.1-0.1-0.1C-107.2,404.2-107.2,404.2-107.1,404.3
			C-107.1,404.3-107.1,404.3-107.1,404.3z"/>
		<path class="st0" d="M-128.1,368.8c-1.9,0-3.8,0-5.7,0c2.5,0,4.9,0,7.4,0C-127,368.8-127.5,368.8-128.1,368.8z"/>
		<path class="st0" d="M-71.9,372.5c0.6-0.5,1.2-1,1.9-1.4c-0.7,0.5-1.3,1-2,1.5C-72,372.6-72,372.6-71.9,372.5z"/>
		<path class="st0" d="M-113.5,399.2c-0.6-0.4-1.2-0.7-1.9-0.6c-1.1,0.2-1.9,1.2-2.7,1.9c-1.2,1.3-2.5,2.5-3.8,3.8
			c1.2-1.2,2.3-2.3,3.4-3.5C-116.9,399.2-115.5,397.8-113.5,399.2z"/>
		<path class="st0" d="M-75.7,375.4c0.9-0.7,1.7-1.3,2.6-2c-1.1,0.8-2.2,1.7-3.3,2.5C-76.2,375.8-75.9,375.6-75.7,375.4z"/>
		<path class="st0" d="M-113.9,391c0.5,0.4,1,0.8,1.5,1.1c-0.3-0.2-0.5-0.4-0.8-0.6C-113.4,391.4-113.6,391.2-113.9,391z"/>
		<path class="st0" d="M-131.7,377.3c-1.1-0.8-2.1-1.6-3.2-2.4c0.2,0.2,0.4,0.3,0.6,0.5c5.5,4.2,11,8.4,16.4,12.6
			c-1.5-1.2-3.1-2.4-4.6-3.5C-125.5,382.1-128.6,379.7-131.7,377.3z"/>
		<path class="st0" d="M-95.7,390.7c-0.7,0.5-1.4,1.1-2.1,1.6c4.9-3.8,9.8-7.5,14.7-11.3c0.8-0.6,1.6-1.3,2.5-1.9
			c-1.9,1.5-3.9,3-5.8,4.4C-89.5,386-92.6,388.4-95.7,390.7z"/>
		<path class="st0" d="M-142.7,395.5c0,0.4,0,0.7,0,1.1C-142.7,396.2-142.7,395.8-142.7,395.5C-142.7,395.4-142.7,395.4-142.7,395.5
			z"/>
		<path class="st0" d="M-137.5,380.8c-0.7-0.5-1.3-1-2-1.5c-0.4-0.3-1.1-0.9-1.7-1.2c0.5,0.2,1,0.6,1.4,0.9
			C-139,379.6-138.3,380.2-137.5,380.8z"/>
		<path class="st0" d="M-82.5,388.7c-0.4,0.3-0.9,0.7-1.3,1c0.3-0.2,0.6-0.5,1-0.7C-82.7,388.9-82.6,388.8-82.5,388.7z"/>
		<path class="st0" d="M-132,414.2c-1.3,1.3-2.6,2.6-3.9,3.9c-0.4,0.4-0.8,0.8-1.2,1.1c0.3-0.3,0.6-0.6,0.8-0.8
			C-134.8,417.1-133.4,415.6-132,414.2z"/>
		<path class="st0" d="M-109.7,402.1c-0.9-0.7-1.9-1.4-2.8-2.2c1.5,1.3,3.2,2.5,4.8,3.8C-108.4,403.2-109.1,402.6-109.7,402.1z"/>
		<path class="st0" d="M-124.3,406.7c-1.9,1.9-3.8,3.7-5.6,5.6c-0.1,0.1-0.2,0.2-0.3,0.3C-128.3,410.6-126.3,408.6-124.3,406.7z"/>
		<path class="st0" d="M-142.7,396.6c0-0.4,0-0.7,0-1.1C-142.7,396-142.7,396.6-142.7,396.6z"/>
	</g>
</g>
</svg>
