<?xml version="1.0" encoding="utf-8"?>
<!-- Generator: Adobe Illustrator 19.0.0, SVG Export Plug-In . SVG Version: 6.00 Build 0)  -->
<svg version="1.1" id="Layer_1" xmlns="http://www.w3.org/2000/svg" xmlns:xlink="http://www.w3.org/1999/xlink" x="0px" y="0px"
	 viewBox="-160 352 110 90" style="enable-background:new -160 352 110 90;" xml:space="preserve">
<style type="text/css">
	.st0{fill:#FBFBFB;}
</style>
<g id="Home">
</g>
<g id="Quote">
</g>
<g id="question">
	<g>
		<path class="st0" d="M-104.1,431.6c-4.1,0.2-7.7-3.3-7.7-7.4c0-3.9,3.4-7.2,7.3-7.2c4,0,7.3,3.2,7.4,7.1
			C-97,428-100.2,431.4-104.1,431.6z M-89.8,396.9c-1.9,2.1-4.2,4.1-5.9,6.4c-1.6,2.2-2.6,4.8-4,8c-3.2,0-7,0-10.9,0
			c-0.6-6.3,1.4-10.9,5.5-14.8c2.7-2.5,5.5-5.1,7.6-8c3-4.2,1.3-9.8-2.9-12.1c-4.6-2.5-10.2-1-12.4,3.6c-0.9,1.9-1.3,5.2-2.5,5.5
			c-3.3,0.8-6.8,0.3-10.3,0.3c-0.7-9.5,4.2-17.7,12.3-20.5c9.8-3.5,21.5-0.2,26.5,7.4C-81.9,380.3-83,389.6-89.8,396.9z"/>
	</g>
</g>
<g id="dish">
</g>
<g id="mail">
</g>
</svg>
