<?xml version="1.0" encoding="utf-8"?>
<!-- Generator: Adobe Illustrator 19.0.0, SVG Export Plug-In . SVG Version: 6.00 Build 0)  -->
<svg version="1.1" id="Layer_1" xmlns="http://www.w3.org/2000/svg" xmlns:xlink="http://www.w3.org/1999/xlink" x="0px" y="0px"
	 viewBox="-160 352 110 90" style="enable-background:new -160 352 110 90;" xml:space="preserve">
<style type="text/css">
	.st0{fill:#FBFBFB;}
</style>
<g id="Home">
</g>
<g id="Quote">
	<g>
		<path class="st0" d="M-110.5,403c-3.2,11.2-11.1,17.2-22.7,19.9c-1-2-1.7-3.6-2.5-5.3c5.1-3.7,9.8-7.3,9.8-14.9
			c-3.5-0.2-7.2-0.3-10.9-0.5c0-8.4,0-16.7,0-24.7c9.2,0,18.2,0,27.4,0C-109.3,385.5-108.1,394.6-110.5,403z M-72.3,402.5
			c-3.2,11.2-11.2,17.4-22.5,20.1c-1-1.8-1.9-3.3-2.9-5.2c5.2-3.5,10.3-6.9,10.1-14.7c-3.4-0.2-7.5-0.3-10.6-0.5
			c0-8.5,0-16.7,0-25.9c9.2,0,17.9,0,27.2,0C-71.4,385.5-69.9,394.1-72.3,402.5z"/>
	</g>
</g>
</svg>
